<svg width="700" height="370" xmlns="http://www.w3.org/2000/svg">
  <style>
    .mono { font-family: 'Courier New', Courier, monospace; }
  </style>

  <rect width="700" height="370" rx="8" fill="#0d1117"/>
  <rect x="20" y="20" width="660" height="330" rx="6" fill="#161b22" stroke="#30363d" stroke-width="1"/>

  <text x="40" y="52" class="mono" font-size="13" fill="#58a6ff" font-weight="bold">Lucks026@bash:~$</text>
  <text x="176" y="52" class="mono" font-size="13" fill="#e6edf3"> cat bio.txt</text>
  <text x="58" y="74" class="mono" font-size="13" fill="#e6edf3">Lucas | 19 y/o | Back-end Developer</text>
  <text x="58" y="96" class="mono" font-size="13" fill="#e6edf3">Studying Systems Analysis and Development.</text>
  <text x="58" y="118" class="mono" font-size="13" fill="#e6edf3">Focus on Back-end Development.</text>

  <text x="40" y="148" class="mono" font-size="13" fill="#58a6ff" font-weight="bold">Lucks026@bash:~$</text>
  <text x="176" y="148" class="mono" font-size="13" fill="#e6edf3"> ./level_up.sh</text>
  <text x="58" y="170" class="mono" font-size="13" fill="#3fb950" font-weight="bold">[+]</text>
  <text x="90" y="170" class="mono" font-size="13" fill="#e6edf3">Status: Always learning new tech to level up my skills!</text>

  <text x="40" y="200" class="mono" font-size="13" fill="#58a6ff" font-weight="bold">Lucks026@bash:~$</text>
  <text x="176" y="200" class="mono" font-size="13" fill="#e6edf3"> cat stack.txt</text>

  <rect x="58" y="212" width="50" height="22" rx="4" fill="#f8982015" stroke="#f89820" stroke-width="0.8"/>
  <text x="83" y="227" class="mono" font-size="12" fill="#f89820" text-anchor="middle" font-weight="600">Java</text>
  <rect x="116" y="212" width="28" height="22" rx="4" fill="#6699cc15" stroke="#6699cc" stroke-width="0.8"/>
  <text x="130" y="227" class="mono" font-size="12" fill="#6699cc" text-anchor="middle" font-weight="600">C</text>
  <rect x="152" y="212" width="42" height="22" rx="4" fill="#6699cc15" stroke="#6699cc" stroke-width="0.8"/>
  <text x="173" y="227" class="mono" font-size="12" fill="#6699cc" text-anchor="middle" font-weight="600">C++</text>
  <rect x="202" y="212" width="90" height="22" rx="4" fill="#f0db4f15" stroke="#f0db4f" stroke-width="0.8"/>
  <text x="247" y="227" class="mono" font-size="12" fill="#f0db4f" text-anchor="middle" font-weight="600">JavaScript</text>
  <rect x="300" y="212" width="90" height="22" rx="4" fill="#3178c615" stroke="#3178c6" stroke-width="0.8"/>
  <text x="345" y="227" class="mono" font-size="12" fill="#3178c6" text-anchor="middle" font-weight="600">TypeScript</text>

  <rect x="58" y="243" width="96" height="22" rx="4" fill="#6db33f15" stroke="#6db33f" stroke-width="0.8"/>
  <text x="106" y="258" class="mono" font-size="12" fill="#6db33f" text-anchor="middle" font-weight="600">Spring Boot</text>
  <rect x="162" y="243" width="62" height="22" rx="4" fill="#2496ed15" stroke="#2496ed" stroke-width="0.8"/>
  <text x="193" y="258" class="mono" font-size="12" fill="#2496ed" text-anchor="middle" font-weight="600">Docker</text>
  <rect x="232" y="243" width="90" height="22" rx="4" fill="#326ce515" stroke="#326ce5" stroke-width="0.8"/>
  <text x="277" y="258" class="mono" font-size="12" fill="#326ce5" text-anchor="middle" font-weight="600">Kubernetes</text>
  <rect x="330" y="243" width="92" height="22" rx="4" fill="#33679115" stroke="#336791" stroke-width="0.8"/>
  <text x="376" y="258" class="mono" font-size="12" fill="#336791" text-anchor="middle" font-weight="600">PostgreSQL</text>
  <rect x="430" y="243" width="56" height="22" rx="4" fill="#4479a115" stroke="#4479a1" stroke-width="0.8"/>
  <text x="458" y="258" class="mono" font-size="12" fill="#4479a1" text-anchor="middle" font-weight="600">MySQL</text>

  <text x="40" y="292" class="mono" font-size="13" fill="#58a6ff" font-weight="bold">Lucks026@bash:~$</text>
  <text x="176" y="292" class="mono" font-size="13" fill="#e6edf3"> cat contact.txt</text>
  <rect x="58" y="304" width="80" height="22" rx="4" fill="#0a66c215" stroke="#0a66c2" stroke-width="0.8"/>
  <text x="98" y="319" class="mono" font-size="12" fill="#0a66c2" text-anchor="middle" font-weight="600">LinkedIn</text>
  <rect x="146" y="304" width="72" height="22" rx="4" fill="#5865f215" stroke="#5865f2" stroke-width="0.8"/>
  <text x="182" y="319" class="mono" font-size="12" fill="#5865f2" text-anchor="middle" font-weight="600">Discord</text>
</svg>
